<?xml version="1.0" encoding="utf-8"?>
<!-- Generator: Adobe Illustrator 23.1.1, SVG Export Plug-In . SVG Version: 6.00 Build 0)  -->
<svg version="1.1" id="Livello_1" xmlns="http://www.w3.org/2000/svg" xmlns:xlink="http://www.w3.org/1999/xlink" x="0px" y="0px"
	 viewBox="0 0 24 54" style="enable-background:new 0 0 24 54;" xml:space="preserve">
<g>
	<g>
		<path d="M14.3,21.4c-0.8,0-1.6,0.3-2.3,0.9c-0.6-0.6-1.4-0.9-2.3-0.9c-2.1,0-3.7,1.7-3.7,3.8c0,1,0.4,2,1.3,2.8l4.2,4.2
			c0.1,0.2,0.3,0.3,0.5,0.3c0.1,0,0.4-0.1,0.5-0.2l4.2-4.2c0.6-0.8,1.2-1.7,1.2-2.8C18,23.1,16.3,21.4,14.3,21.4z M12,30.7L8.3,27
			c-0.4-0.5-0.8-1-0.8-1.8c0-1.2,1-2.3,2.3-2.3c0.6,0,1.2,0.4,1.6,1c0.1,0.2,0.4,0.3,0.6,0.3c0.2,0,0.5-0.1,0.6-0.3
			c0.5-0.6,1.1-1,1.6-1c1.2,0,2.3,1,2.3,2.3c0,0.6-0.3,1.2-0.9,1.8L12,30.7z"/>
	</g>
</g>
</svg>
